<svg width="28" height="28" viewBox="0 0 28 28" fill="none" xmlns="http://www.w3.org/2000/svg">
<path fill-rule="evenodd" clip-rule="evenodd" d="M13.867 18.8597C13.6117 18.8597 13.3576 18.7735 13.1505 18.6L6.43413 13.003C5.95951 12.6078 5.89458 11.9015 6.29085 11.4268C6.686 10.9522 7.39122 10.8884 7.86697 11.2836L13.8793 16.294L19.8815 11.4638C20.3629 11.0765 21.0681 11.1526 21.4554 11.6339C21.8427 12.1153 21.7666 12.8194 21.2852 13.2078L14.5688 18.6123C14.364 18.7768 14.1155 18.8597 13.867 18.8597Z" fill="black"/>
<mask id="mask0_180_180" style="mask-type:alpha" maskUnits="userSpaceOnUse" x="6" y="11" width="16" height="8">
<path fill-rule="evenodd" clip-rule="evenodd" d="M13.867 18.8597C13.6117 18.8597 13.3576 18.7735 13.1505 18.6L6.43413 13.003C5.95951 12.6078 5.89458 11.9015 6.29085 11.4268C6.686 10.9522 7.39122 10.8884 7.86697 11.2836L13.8793 16.294L19.8815 11.4638C20.3629 11.0765 21.0681 11.1526 21.4554 11.6339C21.8427 12.1153 21.7666 12.8194 21.2852 13.2078L14.5688 18.6123C14.364 18.7768 14.1155 18.8597 13.867 18.8597Z" fill="white"/>
</mask>
<g mask="url(#mask0_180_180)">
<rect x="0.435547" y="0.949463" width="26.8656" height="26.8656" fill="#00AC4E"/>
</g>
</svg>
