<svg width="15" height="15" viewBox="0 0 15 15" fill="none" xmlns="http://www.w3.org/2000/svg">
<path d="M14.9086 2.34575C14.9086 1.77936 14.4494 1.32017 13.8831 1.32017H12.1488V0.418393C12.1488 0.187376 11.9615 0 11.7304 0H10.8268C10.5967 0 10.4079 0.187376 10.4079 0.418393V1.32064H4.6493V0.418393C4.6493 0.187376 4.46193 0 4.23092 0H3.38752C3.15651 0 2.96914 0.187376 2.96914 0.418393V1.32064H1.11442C0.548041 1.32064 0.0888672 1.77983 0.0888672 2.34623V6.00076H0.629156V13.946C0.629156 14.529 1.10114 15.0005 1.68364 15.0005H13.255C13.838 15.0005 14.3095 14.529 14.3095 13.946V6.00028H14.9105L14.9086 2.34575ZM12.6289 12.2055C12.6289 12.7885 12.1574 13.26 11.5744 13.26H3.42357C2.84106 13.26 2.36908 12.7885 2.36908 12.2055V6.00028H12.6284V12.2055H12.6289Z" fill="#00AC4E"/>
<path d="M5.48828 7.13965H3.80859V8.88011H5.48828V7.13965Z" fill="#00AC4E"/>
<path d="M8.36816 7.13965H6.68848V8.88011H8.36816V7.13965Z" fill="#00AC4E"/>
<path d="M11.2485 7.13965H9.56836V8.88011H11.2485V7.13965Z" fill="#00AC4E"/>
<path d="M5.48828 10.1997H3.80859V11.9397H5.48828V10.1997Z" fill="#00AC4E"/>
<path d="M8.36816 10.1997H6.68848V11.9397H8.36816V10.1997Z" fill="#00AC4E"/>
<path d="M11.2485 10.1997H9.56836V11.9397H11.2485V10.1997Z" fill="#00AC4E"/>
</svg>
