<svg width="30" height="30" viewBox="0 0 30 30" fill="none" xmlns="http://www.w3.org/2000/svg">
<path fill-rule="evenodd" clip-rule="evenodd" d="M17.124 8.76254C17.124 7.43919 16.0478 6.363 14.7245 6.363C13.4012 6.363 12.325 7.43919 12.325 8.76254C12.325 10.0859 13.4012 11.1621 14.7245 11.1621C16.0478 11.1621 17.124 10.0859 17.124 8.76254ZM19.5236 8.76244C19.5236 11.4091 17.3712 13.5615 14.7245 13.5615C12.0778 13.5615 9.92545 11.4091 9.92545 8.76244C9.92545 6.11576 12.0778 3.96338 14.7245 3.96338C17.3712 3.96338 19.5236 6.11576 19.5236 8.76244ZM6.32617 24.3592C6.32617 19.7281 10.0946 15.9608 14.7245 15.9608C19.3544 15.9608 23.1229 19.7281 23.1229 24.3592C23.1229 25.0214 22.5866 25.5589 21.9231 25.5589C21.2597 25.5589 20.7234 25.0214 20.7234 24.3592C20.7234 21.0514 18.0323 18.3603 14.7245 18.3603C11.4168 18.3603 8.7257 21.0514 8.7257 24.3592C8.7257 25.0214 8.18941 25.5589 7.52594 25.5589C6.86247 25.5589 6.32617 25.0214 6.32617 24.3592Z" fill="black"/>
<mask id="mask0_117_1374" style="mask-type:alpha" maskUnits="userSpaceOnUse" x="6" y="3" width="18" height="23">
<path fill-rule="evenodd" clip-rule="evenodd" d="M17.124 8.76254C17.124 7.43919 16.0478 6.363 14.7245 6.363C13.4012 6.363 12.325 7.43919 12.325 8.76254C12.325 10.0859 13.4012 11.1621 14.7245 11.1621C16.0478 11.1621 17.124 10.0859 17.124 8.76254ZM19.5236 8.76244C19.5236 11.4091 17.3712 13.5615 14.7245 13.5615C12.0778 13.5615 9.92545 11.4091 9.92545 8.76244C9.92545 6.11576 12.0778 3.96338 14.7245 3.96338C17.3712 3.96338 19.5236 6.11576 19.5236 8.76244ZM6.32617 24.3592C6.32617 19.7281 10.0946 15.9608 14.7245 15.9608C19.3544 15.9608 23.1229 19.7281 23.1229 24.3592C23.1229 25.0214 22.5866 25.5589 21.9231 25.5589C21.2597 25.5589 20.7234 25.0214 20.7234 24.3592C20.7234 21.0514 18.0323 18.3603 14.7245 18.3603C11.4168 18.3603 8.7257 21.0514 8.7257 24.3592C8.7257 25.0214 8.18941 25.5589 7.52594 25.5589C6.86247 25.5589 6.32617 25.0214 6.32617 24.3592Z" fill="white"/>
</mask>
<g mask="url(#mask0_117_1374)">
<rect x="0.327148" y="0.364258" width="28.7944" height="28.7944" fill="#C6C6C6"/>
</g>
</svg>
