<svg width="27" height="28" viewBox="0 0 27 28" fill="none" xmlns="http://www.w3.org/2000/svg">
<path fill-rule="evenodd" clip-rule="evenodd" d="M17.9534 17.1966L14.6454 13.87L17.972 10.5621C18.2786 10.2572 18.2794 9.76239 17.9751 9.45635C17.6707 9.15031 17.1759 9.14837 16.8693 9.45326L13.5428 12.7612L10.2348 9.43469C9.93051 9.12865 9.43569 9.12671 9.1291 9.4316C8.8225 9.73648 8.82167 10.2313 9.126 10.5373L12.434 13.8639L9.10744 17.1718C8.80084 17.4767 8.80001 17.9715 9.10434 18.2776C9.40867 18.5836 9.90349 18.5855 10.2101 18.2806L13.5366 14.9727L16.8446 18.2992C17.1489 18.6053 17.6437 18.6072 17.9503 18.3023C18.2569 17.9974 18.2577 17.5026 17.9534 17.1966Z" fill="black"/>
<mask id="mask0_117_1365" style="mask-type:alpha" maskUnits="userSpaceOnUse" x="8" y="9" width="11" height="10">
<path fill-rule="evenodd" clip-rule="evenodd" d="M17.9534 17.1966L14.6454 13.87L17.972 10.5621C18.2786 10.2572 18.2794 9.76239 17.9751 9.45635C17.6707 9.15031 17.1759 9.14837 16.8693 9.45326L13.5428 12.7612L10.2348 9.43469C9.93051 9.12865 9.43569 9.12671 9.1291 9.4316C8.8225 9.73648 8.82167 10.2313 9.126 10.5373L12.434 13.8639L9.10744 17.1718C8.80084 17.4767 8.80001 17.9715 9.10434 18.2776C9.40867 18.5836 9.90349 18.5855 10.2101 18.2806L13.5366 14.9727L16.8446 18.2992C17.1489 18.6053 17.6437 18.6072 17.9503 18.3023C18.2569 17.9974 18.2577 17.5026 17.9534 17.1966Z" fill="white"/>
</mask>
<g mask="url(#mask0_117_1365)">
<rect x="13.5771" y="0.598145" width="18.7652" height="18.7652" transform="rotate(45.1603 13.5771 0.598145)" fill="#00AC4E"/>
</g>
</svg>
