<svg width="10" height="10" viewBox="0 0 10 10" fill="none" xmlns="http://www.w3.org/2000/svg">
<path fill-rule="evenodd" clip-rule="evenodd" d="M2.85072 3.90055C2.85072 2.11659 4.29691 0.67041 6.08086 0.67041C7.86482 0.67041 9.311 2.11659 9.311 3.90055C9.311 5.68451 7.86482 7.13069 6.08086 7.13069H5.15797V8.05359H4.23507V8.97649H3.31217V9.89938H0.0820312V7.401L2.91902 4.56401C2.87377 4.34745 2.85072 4.12542 2.85072 3.90055ZM4.23508 6.20793H6.08087C7.35513 6.20793 8.38811 5.17494 8.38811 3.90069C8.38811 2.62643 7.35513 1.59345 6.08087 1.59345C4.80662 1.59345 3.77363 2.62643 3.77363 3.90069C3.77363 4.13078 3.80717 4.35585 3.87241 4.57111L3.95262 4.83573L1.00494 7.78342V8.97662H2.38928V8.05373H3.31218V7.13083H4.23508V6.20793ZM5.15798 3.90046C5.15798 4.41016 5.57117 4.82336 6.08087 4.82336C6.59057 4.82336 7.00377 4.41016 7.00377 3.90046C7.00377 3.39076 6.59057 2.97756 6.08087 2.97756C5.57117 2.97756 5.15798 3.39076 5.15798 3.90046Z" fill="#C6C6C6"/>
</svg>
