<?xml version="1.0" ?><svg viewBox="0 0 64 64" xmlns="http://www.w3.org/2000/svg"><defs><style>.cls-1{fill:#c69c6d;}.cls-2{fill:#8cc63f;}.cls-3{fill:#fddead;}.cls-4{fill:#fde5bd;}.cls-5{fill:#c1272d;}</style></defs><title/><g data-name="Layer 25" id="Layer_25"><path d="M27,64H1a1,1,0,0,1-.865-1.5l36-62A1,1,0,0,1,37,0H63a1,1,0,0,1,.865,1.5l-36,62A1,1,0,0,1,27,64ZM2.737,62H26.424L61.263,2H37.576Z"/><path class="cls-1" d="M45.739.5a1,1,0,0,0-.866-.5H37a1,1,0,0,0-.865.5l-36,62A1,1,0,0,0,1,64H8.873a1,1,0,0,0,.865-.5l36-62A1,1,0,0,0,45.739.5Z"/><path class="cls-1" d="M63.739.5a1,1,0,0,0-.866-.5H55a1,1,0,0,0-.865.5l-36,62A1,1,0,0,0,19,64h7.873a1,1,0,0,0,.865-.5l36-62A1,1,0,0,0,63.739.5Z"/><path class="cls-2" d="M55.739.5a1,1,0,0,0-.866-.5H45a1,1,0,0,0-.865.5l-36,62A1,1,0,0,0,9,64h9.873a1,1,0,0,0,.865-.5l36-62A1,1,0,0,0,55.739.5Z"/><path class="cls-3" d="M63.26.034A1,1,0,0,0,62.135.5l-36,62A1,1,0,0,0,27,64H63a1,1,0,0,0,1-1V1A1,1,0,0,0,63.26.034Z"/><path class="cls-4" d="M63.26.034A1,1,0,0,0,62.135.5l-.17.292A.981.981,0,0,1,62,1V63a1,1,0,0,1-1,1h2a1,1,0,0,0,1-1V1A1,1,0,0,0,63.26.034Z"/><path class="cls-5" d="M16,60a1,1,0,0,1-1-1V58a3,3,0,0,1,3-3,1,1,0,0,0,1-1V51a3,3,0,0,1,3-3,1,1,0,0,0,1-1V44a3,3,0,0,1,3-3,1,1,0,0,0,1-1V37a3,3,0,0,1,3-3,1,1,0,0,0,1-1V30a3,3,0,0,1,3-3,1,1,0,0,0,1-1V23a3,3,0,0,1,3-3,1,1,0,0,0,1-1V16a3,3,0,0,1,3-3,1,1,0,0,0,1-1V9a3,3,0,0,1,3-3,1,1,0,0,0,1-1,1,1,0,0,1,2,0,3,3,0,0,1-3,3,1,1,0,0,0-1,1v3a3,3,0,0,1-3,3,1,1,0,0,0-1,1v3a3,3,0,0,1-3,3,1,1,0,0,0-1,1v3a3,3,0,0,1-3,3,1,1,0,0,0-1,1v3a3,3,0,0,1-3,3,1,1,0,0,0-1,1v3a3,3,0,0,1-3,3,1,1,0,0,0-1,1v3a3,3,0,0,1-3,3,1,1,0,0,0-1,1v3a3,3,0,0,1-3,3,1,1,0,0,0-1,1v1A1,1,0,0,1,16,60Z"/></g></svg>