<svg xmlns="http://www.w3.org/2000/svg" viewBox="0 0 53.82 56.41"><defs><style>.cls-1{fill:#efefef;}.cls-2{fill:#ffd9c7;}.cls-3{fill:#4d4d4d;}.cls-4{fill:#f79;}.cls-5{fill:#f2b9a7;}.cls-6{fill:#d89078;}.cls-7{fill:#bc6e5c;}.cls-8{fill:#ef608f;}</style></defs><title>Discount 2</title><g id="Layer_2" data-name="Layer 2"><g id="Layer_1-2" data-name="Layer 1"><path class="cls-1" d="M34.51.15c7.26,1,14.76,6.54,17.14,13.7s-.35,15.94-4,24.41-8.26,16.67-14.42,18-13.91-4.3-18.6-9.59A29.51,29.51,0,0,1,7.38,31.91a26.64,26.64,0,0,1,.06-12.53A24.22,24.22,0,0,1,15.53,6.87C20.2,2.86,27.24-.79,34.51.15Z"/><path class="cls-2" d="M18.8,55.23a2.66,2.66,0,0,1-2.14-1.08l-6.07-8.32a.25.25,0,0,1-.05-.19.29.29,0,0,1,.11-.16,2.93,2.93,0,1,0-3.43-4.74A.31.31,0,0,1,7,40.8a.24.24,0,0,1-.2-.08L.76,32.4a2.65,2.65,0,0,1,.57-3.69L33.47,5.24A2.62,2.62,0,0,1,35,4.73a2.66,2.66,0,0,1,2.14,1.08l6.07,8.32a.25.25,0,0,1,.05.19.27.27,0,0,1-.1.16,2.92,2.92,0,1,0,3.42,4.74.39.39,0,0,1,.18-.06h0a.3.3,0,0,1,.18.08l6.07,8.32a2.64,2.64,0,0,1-.57,3.69L20.36,54.72A2.67,2.67,0,0,1,18.8,55.23Z"/><path class="cls-3" d="M35,5A2.4,2.4,0,0,1,37,6L43,14.28l0,0A3.17,3.17,0,0,0,44.88,20a3.12,3.12,0,0,0,1.87-.61l0,0,6.07,8.32a2.39,2.39,0,0,1-.52,3.34L20.21,54.52A2.4,2.4,0,0,1,18.8,55a2.37,2.37,0,0,1-1.93-1l-6.08-8.32,0,0a3.17,3.17,0,0,0-3.74-5.12l0,0L1,32.25a2.4,2.4,0,0,1,.52-3.34L33.61,5.44A2.4,2.4,0,0,1,35,5m0-.5v0a2.84,2.84,0,0,0-1.7.56L1.19,28.51A2.79,2.79,0,0,0,0,30.4a2.85,2.85,0,0,0,.52,2.15l6.07,8.31a.49.49,0,0,0,.4.21.47.47,0,0,0,.3-.1l0,0A2.64,2.64,0,0,1,9,40.43a2.71,2.71,0,0,1,2.16,1.09,2.69,2.69,0,0,1-.58,3.74.53.53,0,0,0-.22.34.51.51,0,0,0,.08.38l6.07,8.31a2.89,2.89,0,0,0,2.34,1.19,2.8,2.8,0,0,0,1.7-.56L52.64,31.45a2.9,2.9,0,0,0,.63-4L47.19,19.1a.49.49,0,0,0-.7-.11l0,0a2.63,2.63,0,0,1-1.57.51,2.69,2.69,0,0,1-2.16-1.09,2.66,2.66,0,0,1,.58-3.74.54.54,0,0,0,.14-.72L37.36,5.67A2.88,2.88,0,0,0,35,4.48Z"/><path class="cls-4" d="M24.26,43.31a1.93,1.93,0,0,1-1.51-.73,1.44,1.44,0,0,0-1.92-.3,1.94,1.94,0,0,1-3-1.32,1.42,1.42,0,0,0-1.42-1.22h-.23a1.93,1.93,0,0,1-1.8-2.65,1.44,1.44,0,0,0-.7-1.81A1.94,1.94,0,0,1,13.33,32a1.44,1.44,0,0,0,.3-1.92,1.94,1.94,0,0,1,1.33-3,1.41,1.41,0,0,0,1.21-1.51,1.93,1.93,0,0,1,.53-1.45,2,2,0,0,1,1.42-.62,1.89,1.89,0,0,1,.7.13,1.34,1.34,0,0,0,.52.1,1.46,1.46,0,0,0,1.3-.8,1.94,1.94,0,0,1,1.74-1.08,1.92,1.92,0,0,1,1.51.73,1.43,1.43,0,0,0,1.13.54,1.39,1.39,0,0,0,.79-.24,2,2,0,0,1,1.08-.33,1.93,1.93,0,0,1,1.92,1.66,1.43,1.43,0,0,0,1.42,1.22h.23a1.94,1.94,0,0,1,1.8,2.65,1.45,1.45,0,0,0,.7,1.82,1.94,1.94,0,0,1,.35,3.26,1.44,1.44,0,0,0-.3,1.92,1.94,1.94,0,0,1-1.32,3,1.43,1.43,0,0,0-1.22,1.52A1.93,1.93,0,0,1,30,41.05a1.92,1.92,0,0,1-2.13.48,1.5,1.5,0,0,0-.52-.1,1.43,1.43,0,0,0-1.29.8A2,2,0,0,1,24.26,43.31Z"/><path class="cls-3" d="M22.38,22.12a1.67,1.67,0,0,1,1.32.64,1.69,1.69,0,0,0,1.32.63,1.66,1.66,0,0,0,.93-.28,1.67,1.67,0,0,1,.94-.29,1.69,1.69,0,0,1,1.67,1.44,1.69,1.69,0,0,0,1.67,1.44h.23A1.69,1.69,0,0,1,32,28a1.7,1.7,0,0,0,.82,2.13A1.7,1.7,0,0,1,33.16,33a1.69,1.69,0,0,0-.36,2.25,1.68,1.68,0,0,1-1.15,2.61,1.7,1.7,0,0,0-1.43,1.79,1.7,1.7,0,0,1-1.69,1.8,1.75,1.75,0,0,1-.62-.12,1.62,1.62,0,0,0-.61-.12,1.71,1.71,0,0,0-1.52.94,1.7,1.7,0,0,1-2.84.31,1.66,1.66,0,0,0-2.25-.35,1.74,1.74,0,0,1-.94.28,1.68,1.68,0,0,1-1.67-1.44,1.71,1.71,0,0,0-1.67-1.44h-.23a1.7,1.7,0,0,1-1.57-2.31,1.7,1.7,0,0,0-.82-2.13,1.7,1.7,0,0,1-.3-2.84A1.69,1.69,0,0,0,13.84,30,1.69,1.69,0,0,1,15,27.35a1.68,1.68,0,0,0,1.43-1.78,1.69,1.69,0,0,1,2.31-1.68,1.87,1.87,0,0,0,.61.11,1.7,1.7,0,0,0,1.52-.94,1.7,1.7,0,0,1,1.52-.94m0-.5a2.2,2.2,0,0,0-2,1.22,1.18,1.18,0,0,1-1.07.66,1.26,1.26,0,0,1-.43-.08,2.17,2.17,0,0,0-.79-.15,2.21,2.21,0,0,0-1.61.7,2.16,2.16,0,0,0-.58,1.63,1.2,1.2,0,0,1-1,1.26,2.19,2.19,0,0,0-1.5,3.38,1.19,1.19,0,0,1-.24,1.58,2.2,2.2,0,0,0,.39,3.68,1.2,1.2,0,0,1,.58,1.5,2.19,2.19,0,0,0,2,3h.23a1.18,1.18,0,0,1,1.17,1,2.19,2.19,0,0,0,2.17,1.87A2.24,2.24,0,0,0,21,42.49a1.17,1.17,0,0,1,1.58.25,2.2,2.2,0,0,0,3.68-.4,1.21,1.21,0,0,1,1.07-.66,1.26,1.26,0,0,1,.43.08,2,2,0,0,0,.8.16,2.21,2.21,0,0,0,1.6-.7,2.14,2.14,0,0,0,.59-1.64,1.17,1.17,0,0,1,1-1.25A2.19,2.19,0,0,0,33.22,35a1.2,1.2,0,0,1,.25-1.59,2.2,2.2,0,0,0-.4-3.68,1.2,1.2,0,0,1-.58-1.5,2.19,2.19,0,0,0-2-3h-.23a1.18,1.18,0,0,1-1.17-1,2.19,2.19,0,0,0-3.38-1.5,1.22,1.22,0,0,1-.66.2,1.19,1.19,0,0,1-.93-.44,2.17,2.17,0,0,0-1.71-.83Z"/><path class="cls-3" d="M18.51,34.27,17.3,32.62a1.52,1.52,0,0,1,.48-2.34,1.52,1.52,0,0,1,2.37.26l1.21,1.65a1.53,1.53,0,0,1-.47,2.34A1.53,1.53,0,0,1,18.51,34.27Zm1-3.25a.83.83,0,0,0-1.28-.16A.81.81,0,0,0,18,32.13l1.21,1.66a.94.94,0,0,0,1.51-1.11Zm3.08-4.34a.58.58,0,0,1,.08.18L24.46,38a.43.43,0,0,1-.76.33.33.33,0,0,1-.07-.17L21.79,27a.38.38,0,0,1,.16-.37A.45.45,0,0,1,22.57,26.68Zm3.54,7.93L24.9,33a1.53,1.53,0,0,1,.47-2.34,1.53,1.53,0,0,1,2.38.26L29,32.53a1.53,1.53,0,0,1-.48,2.34A1.52,1.52,0,0,1,26.11,34.61Zm1-3.25a.94.94,0,0,0-1.51,1.11l1.2,1.65A.94.94,0,0,0,28.29,33Z"/><path class="cls-5" d="M2.65,30.55,34.78,7.08a2.39,2.39,0,0,1,3.34.52L43,14.29h0L37,6a2.41,2.41,0,0,0-3.35-.52L1.48,28.91A2.4,2.4,0,0,0,1,32.25l1,1.42A2.37,2.37,0,0,1,2.65,30.55Z"/><path class="cls-6" d="M45.75,36.12a.24.24,0,0,1-.2-.11L26.84,10.4a.25.25,0,0,1,0-.19.23.23,0,0,1,.1-.16l6.58-4.81a2.63,2.63,0,0,1,3.68.57l6.07,8.32a.25.25,0,0,1,.05.19.27.27,0,0,1-.1.16,2.92,2.92,0,1,0,3.42,4.74.32.32,0,0,1,.18-.06h0a.26.26,0,0,1,.18.09l6.08,8.32a2.65,2.65,0,0,1-.58,3.69L45.9,36.07A.3.3,0,0,1,45.75,36.12Z"/><path class="cls-3" d="M35,5A2.38,2.38,0,0,1,37,6L43,14.28l0,0A3.17,3.17,0,0,0,44.88,20a3.12,3.12,0,0,0,1.87-.61l0,0,6.08,8.31a2.41,2.41,0,0,1-.53,3.35l-6.58,4.81L27,10.25l6.59-4.81A2.37,2.37,0,0,1,35,5m0-.5a2.84,2.84,0,0,0-1.7.56L26.75,9.85a.48.48,0,0,0-.2.32.51.51,0,0,0,.09.38L45.35,36.16a.5.5,0,0,0,.4.21.57.57,0,0,0,.3-.1l6.58-4.81a2.89,2.89,0,0,0,.63-4L47.19,19.1a.5.5,0,0,0-.33-.2h-.08a.5.5,0,0,0-.29.09,2.67,2.67,0,0,1-1.61.54,2.69,2.69,0,0,1-2.16-1.09,2.66,2.66,0,0,1,.58-3.74.54.54,0,0,0,.14-.72L37.36,5.67A2.87,2.87,0,0,0,35,4.48Z"/><path class="cls-7" d="M34.79,7.08a2.38,2.38,0,0,1,3.33.52L43,14.29h0L37,6a2.38,2.38,0,0,0-3.33-.52L27,10.25l1.19,1.63Z"/><path class="cls-8" d="M14.65,33.85A1.67,1.67,0,0,0,15,31.6,1.69,1.69,0,0,1,16.16,29a1.68,1.68,0,0,0,1.43-1.78,1.69,1.69,0,0,1,2.3-1.68A1.71,1.71,0,0,0,22,24.7a1.7,1.7,0,0,1,2.84-.3,1.69,1.69,0,0,0,2.25.35,1.66,1.66,0,0,1,1.52-.17,3,3,0,0,1-.08-.32A1.69,1.69,0,0,0,26,23.11a1.69,1.69,0,0,1-2.25-.35,1.7,1.7,0,0,0-2.84.3,1.7,1.7,0,0,1-2.13.83,1.7,1.7,0,0,0-2.31,1.68A1.68,1.68,0,0,1,15,27.35,1.69,1.69,0,0,0,13.84,30a1.69,1.69,0,0,1-.35,2.25,1.7,1.7,0,0,0,.3,2.84l.24.15A1.69,1.69,0,0,1,14.65,33.85Z"/><path class="cls-8" d="M33.78,31.62a1.66,1.66,0,0,0-.7-1.33A1.66,1.66,0,0,0,33.78,31.62Z"/><path class="cls-8" d="M29.73,25.9a1.69,1.69,0,0,0,1.78,1.44,1.58,1.58,0,0,1,.62.08,1.67,1.67,0,0,0-1.79-1.72,1.84,1.84,0,0,1-.7-.11A1.58,1.58,0,0,1,29.73,25.9Z"/><path class="cls-8" d="M18.17,41.24a1.64,1.64,0,0,0,1,1A1.67,1.67,0,0,0,18.17,41.24Z"/><path class="cls-8" d="M15.78,38.82A1.7,1.7,0,0,0,15,36.69a1.3,1.3,0,0,1-.23-.15,1.61,1.61,0,0,1-.12.64,1.69,1.69,0,0,0,1.06,2.22A1.75,1.75,0,0,1,15.78,38.82Z"/></g></g></svg>