<svg xmlns="http://www.w3.org/2000/svg" viewBox="0 0 60.79 55.78"><defs><style>.cls-1{fill:#efefef;}.cls-2{fill:#ffd9c7;}.cls-3{fill:#4d4d4d;}.cls-4{fill:#f79;}.cls-5{fill:#d89078;}.cls-6{fill:#f2b9a7;}</style></defs><title>Discount 1</title><g id="Layer_2" data-name="Layer 2"><g id="Layer_1-2" data-name="Layer 1"><path class="cls-1" d="M60.32,28c1.9,4.84-2.25,11.82-7.67,17.21S40.5,54.43,33.85,55.47,20.61,54.81,14.07,52,1,45.49.12,40.07s3.7-12.46,7.49-19S14.37,8.64,19.36,4.64s12-6,16.22-3.54,5.56,9.62,10.22,14.51S58.42,23.2,60.32,28Z"/><path class="cls-2" d="M11.28,52a2.81,2.81,0,0,1-2.81-2.81V19.72a2.79,2.79,0,0,1,1.06-2.2L22.92,6.87a4.83,4.83,0,0,1,6,0l.6.48a.25.25,0,0,1,.09.22.22.22,0,0,1-.12.19,18.51,18.51,0,0,0-2.88,2c-.18.15-.35.31-.51.47a.23.23,0,0,1-.18.08,2.79,2.79,0,0,0,0,5.57,2.93,2.93,0,0,0,1.06-.2,2.81,2.81,0,0,0,1.48-1.42,2.91,2.91,0,0,0,.25-1.16,2.77,2.77,0,0,0-.87-2,.26.26,0,0,1-.08-.19.28.28,0,0,1,.09-.18,19.87,19.87,0,0,1,3.1-2l.12,0a.25.25,0,0,1,.16.06L42.3,17.52a2.82,2.82,0,0,1,1.06,2.2V49.23A2.81,2.81,0,0,1,40.55,52Z"/><path class="cls-3" d="M25.91,6.08a4.55,4.55,0,0,1,2.84,1l.6.48a18.56,18.56,0,0,0-2.91,2c-.19.16-.36.32-.53.49h0a3,3,0,0,0,0,6.07,3.1,3.1,0,0,0,1.15-.22,3,3,0,0,0,1.61-1.55A3,3,0,0,0,29,13.09,3,3,0,0,0,28,10.88a20.08,20.08,0,0,1,3.06-2L39,15.18,41.29,17l.85.67a2.58,2.58,0,0,1,1,2V49.23a2.56,2.56,0,0,1-2.56,2.56H11.28a2.56,2.56,0,0,1-2.56-2.56V19.72a2.58,2.58,0,0,1,1-2L23.07,7.07a4.57,4.57,0,0,1,2.84-1m0-.5a5.07,5.07,0,0,0-3.15,1.1L9.37,17.32a3.07,3.07,0,0,0-1.15,2.4V49.23a3.07,3.07,0,0,0,3.06,3.06H40.55a3.07,3.07,0,0,0,3.06-3.06V19.72a3,3,0,0,0-1.16-2.4l-.85-.67-2.33-1.86-7.9-6.28a.51.51,0,0,0-.31-.11.46.46,0,0,0-.23.06,19.45,19.45,0,0,0-3.14,2,.48.48,0,0,0-.19.36.51.51,0,0,0,.16.39,2.53,2.53,0,0,1-.79,4.18,2.38,2.38,0,0,1-1,.19,2.54,2.54,0,0,1,0-5.07h0a.48.48,0,0,0,.36-.15c.15-.16.32-.31.5-.47A18.36,18.36,0,0,1,29.6,8a.5.5,0,0,0,.25-.4.49.49,0,0,0-.19-.42l-.59-.48a5.12,5.12,0,0,0-3.16-1.1Z"/><path class="cls-4" d="M19.67,34.07a5,5,0,0,1-2-.38,4.75,4.75,0,0,1-1.55-1,4.62,4.62,0,0,1-1-1.52,4.68,4.68,0,0,1-.37-1.86,4.54,4.54,0,0,1,.37-1.83,4.82,4.82,0,0,1,2.59-2.56,5,5,0,0,1,2-.38,5.17,5.17,0,0,1,2,.38,4.76,4.76,0,0,1,2.59,2.55,4.63,4.63,0,0,1,.38,1.84,4.77,4.77,0,0,1-1.41,3.38,4.9,4.9,0,0,1-1.56,1,5.17,5.17,0,0,1-2,.38Zm0-7.17a2.3,2.3,0,0,0-1.62.66,2.61,2.61,0,0,0,0,3.47,2.32,2.32,0,0,0,3.24,0,2.61,2.61,0,0,0,0-3.47A2.3,2.3,0,0,0,19.67,26.9Z"/><path class="cls-3" d="M19.67,24.77a4.81,4.81,0,0,1,1.88.36A4.62,4.62,0,0,1,24,27.55a4.48,4.48,0,0,1,.35,1.75A4.35,4.35,0,0,1,24,31.05a4.25,4.25,0,0,1-1,1.44,4.74,4.74,0,0,1-1.49,1,4.92,4.92,0,0,1-1.88.36,4.78,4.78,0,0,1-1.86-.36,4.58,4.58,0,0,1-1.48-1,4.43,4.43,0,0,1-1-1.44A4.52,4.52,0,0,1,15,29.3a4.4,4.4,0,0,1,.35-1.74,4.62,4.62,0,0,1,2.46-2.43,4.71,4.71,0,0,1,1.86-.36m0,7.17a2.46,2.46,0,0,0,1.79-.73h0a2.85,2.85,0,0,0,0-3.83,2.56,2.56,0,0,0-3.58,0,2.85,2.85,0,0,0,0,3.83,2.46,2.46,0,0,0,1.79.73m0-7.67A5.19,5.19,0,0,0,16,25.75a5.26,5.26,0,0,0-1.09,1.61,4.84,4.84,0,0,0-.39,1.94,5,5,0,0,0,.39,1.95A5.1,5.1,0,0,0,16,32.85a5.18,5.18,0,0,0,1.63,1.07,5.53,5.53,0,0,0,4.13,0,5.06,5.06,0,0,0,1.65-1.07,4.91,4.91,0,0,0,1.08-1.6,4.83,4.83,0,0,0,.4-1.95,4.68,4.68,0,0,0-.4-1.94,5.15,5.15,0,0,0-4.8-3.09Zm0,7.17a1.94,1.94,0,0,1-1.44-.59,2,2,0,0,1-.59-1.55,2.11,2.11,0,0,1,.59-1.56,2.05,2.05,0,0,1,2.88,0,2.34,2.34,0,0,1,0,3.11,1.94,1.94,0,0,1-1.44.59Z"/><path class="cls-4" d="M20.16,44.51a1.14,1.14,0,0,1-.95-1.78L30.7,25.57a1.16,1.16,0,0,1,1-.51,1.13,1.13,0,0,1,.64.2,1.15,1.15,0,0,1,.31,1.59L21.12,44a1.16,1.16,0,0,1-1,.5Z"/><path class="cls-3" d="M31.66,25.31a.89.89,0,0,1,.5.15.9.9,0,0,1,.24,1.25L20.91,43.87a.9.9,0,0,1-.75.39.88.88,0,0,1-.49-.15.9.9,0,0,1-.25-1.24L30.91,25.71a.91.91,0,0,1,.75-.4m0-.5a1.38,1.38,0,0,0-1.16.62L19,42.59a1.4,1.4,0,0,0,.38,1.94,1.37,1.37,0,0,0,.77.23,1.43,1.43,0,0,0,1.17-.61L32.82,27a1.4,1.4,0,0,0-.38-1.94,1.36,1.36,0,0,0-.78-.24Z"/><path class="cls-4" d="M32.13,45.06a5,5,0,0,1-2-.38,4.9,4.9,0,0,1-1.56-1,4.77,4.77,0,0,1-1-5.22,5,5,0,0,1,1-1.52,4.72,4.72,0,0,1,1.55-1,5,5,0,0,1,2-.38,5.09,5.09,0,0,1,2,.38,4.71,4.71,0,0,1,1.57,1,4.92,4.92,0,0,1,1,1.52,4.63,4.63,0,0,1,.38,1.84,4.77,4.77,0,0,1-1.41,3.38,4.84,4.84,0,0,1-1.57,1,5.09,5.09,0,0,1-2,.38Zm0-7.17a2.3,2.3,0,0,0-1.62.66,2.61,2.61,0,0,0,0,3.47,2.2,2.2,0,0,0,1.62.66A2.18,2.18,0,0,0,33.74,42a2.58,2.58,0,0,0,0-3.47A2.26,2.26,0,0,0,32.13,37.89Z"/><path class="cls-3" d="M32.13,35.76a4.88,4.88,0,0,1,1.88.36,4.56,4.56,0,0,1,2.46,2.42,4.3,4.3,0,0,1,.36,1.74,4.5,4.5,0,0,1-1.34,3.2,4.58,4.58,0,0,1-1.48,1,5,5,0,0,1-1.88.36,4.78,4.78,0,0,1-1.86-.36A4.5,4.5,0,0,1,27.81,42a4.53,4.53,0,0,1-.35-1.76,4.47,4.47,0,0,1,.35-1.74,4.77,4.77,0,0,1,1-1.44,4.4,4.4,0,0,1,1.48-1,4.67,4.67,0,0,1,1.86-.36m0,7.17a2.48,2.48,0,0,0,1.79-.73h0a2.56,2.56,0,0,0,.74-1.91,2.59,2.59,0,0,0-.74-1.91,2.57,2.57,0,0,0-3.59,0,2.63,2.63,0,0,0-.73,1.91,2.59,2.59,0,0,0,.73,1.91,2.45,2.45,0,0,0,1.8.74m0-7.67a5.15,5.15,0,0,0-2.06.4,5,5,0,0,0-1.63,1.08,5.34,5.34,0,0,0-1.09,1.6A4.91,4.91,0,0,0,27,40.28a5,5,0,0,0,.39,2,5.1,5.1,0,0,0,1.09,1.6,5.18,5.18,0,0,0,1.63,1.07,5.29,5.29,0,0,0,2.06.4,5.41,5.41,0,0,0,2.07-.4,5,5,0,0,0,1.64-1.07,4.94,4.94,0,0,0,1.09-1.6,5,5,0,0,0,.4-2,4.92,4.92,0,0,0-.4-1.94,5.16,5.16,0,0,0-1.09-1.6,4.88,4.88,0,0,0-1.64-1.08,5.23,5.23,0,0,0-2.07-.4Zm0,7.17a1.91,1.91,0,0,1-1.44-.59,2.34,2.34,0,0,1,0-3.11,2.05,2.05,0,0,1,2.88,0,2.34,2.34,0,0,1,0,3.11,1.94,1.94,0,0,1-1.44.59Z"/><path class="cls-5" d="M36.45,17c-1.38,0-2.69-.06-3.9-.18a18.66,18.66,0,0,1-5.39-1.17c-1.42-.61-2.23-1.4-2.42-2.36a3,3,0,0,1,0-.43A3.86,3.86,0,0,1,26,10.3a2.75,2.75,0,0,1,1.6.58h0c-1,.84-1.46,1.62-1.37,2.13s.64.89,1.55,1.27c.24.1.51.2.82.3a21.58,21.58,0,0,0,4.09.74c1.18.11,2.44.17,3.77.17.82,0,1.66,0,2.51-.07a50.23,50.23,0,0,0,6.91-.83,30.88,30.88,0,0,0,6.83-2.11c3.17-1.51,4.57-3.33,4.16-5.42A3.83,3.83,0,0,0,54,4.14a13,13,0,0,0-4.22-.59,37.22,37.22,0,0,0-9.61,1.52,47.24,47.24,0,0,0-9.07,3.54l-1.29-1C34.73,4.82,43.17,2,49.77,2a14.65,14.65,0,0,1,4.71.66,5.4,5.4,0,0,1,3.89,4.08c.83,4.25-3.62,7.65-12.2,9.32-1.55.3-3.2.53-4.9.69S38,17,36.45,17Z"/><path class="cls-3" d="M49.77,2.29a14.15,14.15,0,0,1,4.63.65,5.14,5.14,0,0,1,3.72,3.88c.8,4.1-3.57,7.4-12,9-1.54.3-3.18.53-4.87.69s-3.25.23-4.8.23c-1.37,0-2.68-.06-3.88-.18a18.53,18.53,0,0,1-5.31-1.15c-1.34-.57-2.1-1.3-2.27-2.18a1.58,1.58,0,0,1,0-.38,3.52,3.52,0,0,1,1.17-2.32,2.46,2.46,0,0,1,1.09.35c-.89.83-1.33,1.59-1.22,2.16s.69,1,1.69,1.45c.24.1.52.2.85.31a21,21,0,0,0,4.14.75c1.18.11,2.45.17,3.79.17.82,0,1.67,0,2.52-.07a50.64,50.64,0,0,0,7-.83,30.8,30.8,0,0,0,6.89-2.14c3.28-1.55,4.73-3.47,4.3-5.69a4.14,4.14,0,0,0-3-3.12,13.58,13.58,0,0,0-4.3-.6A37.19,37.19,0,0,0,40.1,4.83a47.07,47.07,0,0,0-9,3.48l-.87-.69c4.94-2.68,13.11-5.33,19.52-5.33m0-.5c-6.4,0-14.84,2.63-20.11,5.58l-.31.18L31.06,8.9a46.39,46.39,0,0,1,9.17-3.59A36.63,36.63,0,0,1,49.77,3.8a12.94,12.94,0,0,1,4.13.57,3.64,3.64,0,0,1,2.73,2.75c.89,4.6-8,6.7-10.8,7.24a51,51,0,0,1-6.87.82c-.85,0-1.68.07-2.5.07-1.31,0-2.57-.06-3.74-.17a20.88,20.88,0,0,1-4-.73c-.3-.1-.56-.19-.79-.29-1-.4-1.35-.82-1.4-1.09s.24-1,1.29-1.89l.23-.2a3,3,0,0,0-2.09-.83h0a4.16,4.16,0,0,0-1.46,2.83,2.61,2.61,0,0,0,.05.48,3.83,3.83,0,0,0,2.56,2.54,19.3,19.3,0,0,0,5.47,1.19c1.23.12,2.55.18,3.92.18,1.58,0,3.22-.08,4.84-.23s3.35-.39,4.93-.7c8.73-1.69,13.25-5.2,12.39-9.61a5.64,5.64,0,0,0-4-4.27,14.86,14.86,0,0,0-4.79-.67Z"/><path class="cls-2" d="M31.06,8.9a20.08,20.08,0,0,0-3.06,2,3,3,0,0,0-2.09-.83c.17-.17.34-.33.53-.49a18.56,18.56,0,0,1,2.91-2Z"/><path class="cls-6" d="M10.72,49.23V19.72a2.58,2.58,0,0,1,1-2L25.07,7.07a4.65,4.65,0,0,1,1.84-.87,4.58,4.58,0,0,0-3.84.87L9.68,17.71a2.58,2.58,0,0,0-1,2V49.23a2.56,2.56,0,0,0,2.56,2.56h2A2.56,2.56,0,0,1,10.72,49.23Z"/></g></g></svg>